<?xml version="1.0" encoding="UTF-8" standalone="no"?>
<!DOCTYPE svg PUBLIC "-//W3C//DTD SVG 1.1//EN" "http://www.w3.org/Graphics/SVG/1.1/DTD/svg11.dtd">
<svg width="100%" height="100%" viewBox="0 0 1796 1019" version="1.1" xmlns="http://www.w3.org/2000/svg" xmlns:xlink="http://www.w3.org/1999/xlink" xml:space="preserve" xmlns:serif="http://www.serif.com/" style="fill-rule:evenodd;clip-rule:evenodd;stroke-linejoin:round;stroke-miterlimit:2;">
    <g transform="matrix(1,0,0,1,0.000206,-468.055144)">
        <path d="M867.183,1181.66C866.112,1106.11 856.708,1026.67 813.928,962.418C776.038,905.511 720.615,872.794 657.243,850.234C629.851,840.483 591.976,840.906 589.3,802.755C586.498,762.802 621.906,754.468 654.057,762.187C723.97,778.973 794.232,838.286 834.124,896.601C846.132,914.154 854.327,934.239 867.158,951.168C866.528,936.427 868.066,921.388 867.281,906.654C861.82,804.234 831.971,715.556 761.626,640.188C746.007,623.453 711.092,601.861 704.645,581.954C692.512,544.495 732.311,512.389 767.182,533.794C794.3,550.439 834.012,605.252 849.912,633.516C873.656,675.725 891.795,727.6 896.012,775.901C900.815,774.981 899.938,770.827 900.781,767.491C904.827,751.475 906.352,734.454 911.067,717.756C926.437,663.321 979.02,564.475 1028.22,534.825C1051.49,520.805 1078.19,526.125 1090.16,551.679C1107.63,588.96 1071.88,604.141 1050.75,624.581C959.146,713.196 924.216,824.336 929.618,951.156L955.947,906.701C987.734,846.583 1105.84,749.208 1175.42,759.321C1212.35,764.689 1218.67,825.209 1179.22,839.509C1136.67,854.934 1102.72,860.107 1061.94,885.472C959.3,949.329 927.406,1066.34 929.594,1181.66L867.183,1181.66Z" style="fill:rgb(117,189,67);fill-rule:nonzero;"/>
        <path d="M719.913,659.102C733.169,671.644 749.77,693.523 760.161,708.88C766.188,717.788 808.64,790.894 804.759,795.097L743.134,754.721C708.73,732.37 581.543,709.842 630.693,646.203C656.931,612.23 695.965,636.444 719.913,659.102Z" style="fill:rgb(117,189,67);fill-rule:nonzero;"/>
        <path d="M992.017,795.097C987.313,789.969 1032.76,714.208 1039.48,704.545C1057.98,677.955 1097.47,629.277 1132.43,629.249C1165.38,629.222 1185.86,666.989 1169.27,695.105C1153.75,721.401 1082.56,734.938 1056.76,753.043L992.017,795.097Z" style="fill:rgb(117,189,67);fill-rule:nonzero;"/>
        <path d="M638.518,896.529C687.955,887.951 751.532,947.548 774.865,987.08C778.629,993.457 781.903,998.529 771.196,998.18C737.196,997.072 648.348,991.398 622.484,971.434C595.162,950.345 603.226,902.653 638.518,896.529Z" style="fill:rgb(117,189,67);fill-rule:nonzero;"/>
        <path d="M1018.42,996.773C1015.57,994.03 1026.22,980.123 1028.449,976.821C1052.5,941.206 1128.06,871.074 1173.25,903.138C1201.1,922.9 1192.63,963.646 1163.38,977.322C1123.62,995.909 1061.91,994.778 1018.42,996.773Z" style="fill:rgb(117,189,67);fill-rule:nonzero;"/>
        <path d="M928.775,479.007C955.749,505.997 931.617,568.04 920.033,599.476C914.033,615.757 907.401,635.54 896.018,648.648C881.909,607.982 848.63,544.308 855.339,501.157C860.245,469.597 907.033,457.251 928.775,479.007Z" style="fill:rgb(117,189,67);fill-rule:nonzero;"/>
        <path d="M88.669,1320.79C89.329,1319.79 89.989,1319.29 90.66,1319.29L119.111,1319.29C119.944,1319.29 120.563,1319.54 120.98,1320.05C121.396,1320.54 121.436,1321.2 121.101,1322.04L77.937,1482.5C77.439,1483.49 76.769,1483.99 75.937,1483.99L44.998,1483.99C43.993,1483.99 43.414,1483.49 43.251,1482.5L0.077,1322.04C-0.257,1320.21 0.493,1319.29 2.321,1319.29L31.016,1319.29C31.686,1319.29 32.346,1319.79 33.016,1320.79L60.462,1424.1L88.669,1320.79Z" style="fill:rgb(29,38,80);fill-rule:nonzero;"/>
        <path d="M205.947,1416.37L195.214,1378.68L185.233,1416.37L205.947,1416.37ZM178.247,1320.79C178.582,1319.79 179.161,1319.29 179.994,1319.29L210.943,1319.29C211.765,1319.29 212.354,1319.79 212.689,1320.79L255.853,1481.25C256.187,1483.08 255.437,1483.99 253.609,1483.99L225.158,1483.99C224.163,1483.99 223.584,1483.49 223.412,1482.5L213.684,1447.56L177.252,1447.56L167.768,1482.5C167.433,1483.49 166.855,1483.99 166.022,1483.99L137.327,1483.99C135.489,1483.99 134.738,1483.08 135.073,1481.25L178.247,1320.79Z" style="fill:rgb(29,38,80);fill-rule:nonzero;"/>
        <path d="M323.488,1321.54L323.488,1452.8L377.385,1452.8C378.877,1452.8 379.629,1453.54 379.629,1455.02L379.629,1481.77C379.629,1483.25 378.877,1483.99 377.385,1483.99L292.793,1483.99C291.453,1483.99 290.793,1483.24 290.793,1481.75L290.793,1321.54C290.793,1320.05 291.453,1319.29 292.793,1319.29L321.234,1319.29C322.737,1319.29 323.488,1320.05 323.488,1321.54Z" style="fill:rgb(29,38,80);fill-rule:nonzero;"/>
        <path d="M447.253,1321.54L447.253,1452.8L501.15,1452.8C502.643,1452.8 503.394,1453.54 503.394,1455.02L503.394,1481.77C503.394,1483.25 502.643,1483.99 501.15,1483.99L416.558,1483.99C415.218,1483.99 414.558,1483.24 414.558,1481.75L414.558,1321.54C414.558,1320.05 415.218,1319.29 416.558,1319.29L444.999,1319.29C446.502,1319.29 447.253,1320.05 447.253,1321.54Z" style="fill:rgb(29,38,80);fill-rule:nonzero;"/>
        <path d="M538.333,1481.75L538.333,1321.54C538.333,1320.05 538.993,1319.29 540.334,1319.29L568.775,1319.29C570.278,1319.29 571.029,1320.05 571.029,1321.54L571.029,1481.75C571.029,1483.24 570.278,1483.99 568.775,1483.99L540.334,1483.99C538.993,1483.99 538.333,1483.24 538.333,1481.75Z" style="fill:rgb(29,38,80);fill-rule:nonzero;"/>
        <path d="M675.827,1416.37L665.094,1378.68L655.113,1416.37L675.827,1416.37ZM648.127,1320.79C648.462,1319.79 649.041,1319.29 649.874,1319.29L680.823,1319.29C681.645,1319.29 682.234,1319.79 682.569,1320.79L725.733,1481.25C726.068,1483.08 725.317,1483.99 723.489,1483.99L695.038,1483.99C694.043,1483.99 693.464,1483.49 693.291,1482.5L683.564,1447.56L647.132,1447.56L637.648,1482.5C637.313,1483.49 636.734,1483.99 635.902,1483.99L607.207,1483.99C605.369,1483.99 604.618,1483.08 604.953,1481.25L648.127,1320.79Z" style="fill:rgb(29,38,80);fill-rule:nonzero;"/>
        <path d="M831.039,1319.29L859.733,1319.29C861.226,1319.29 861.977,1320.05 861.977,1321.54L861.977,1481.75C861.977,1483.24 861.226,1483.99 859.733,1483.99L832.034,1483.99C830.866,1483.99 830.115,1483.57 829.79,1482.74L793.358,1400.65L793.358,1481.75C793.358,1483.24 792.606,1483.99 791.104,1483.99L762.663,1483.99C761.322,1483.99 760.662,1483.24 760.662,1481.75L760.662,1321.54C760.662,1320.05 761.322,1319.29 762.663,1319.29L792.109,1319.29C792.769,1319.29 793.358,1319.71 793.855,1320.54L828.785,1401.14L828.785,1321.54C828.785,1320.05 829.536,1319.29 831.039,1319.29Z" style="fill:rgb(29,38,80);fill-rule:nonzero;"/>
        <path d="M896.907,1348.24L896.907,1321.54C896.907,1320.05 897.658,1319.29 899.161,1319.29L1003.22,1319.29C1004.71,1319.29 1005.46,1320.05 1005.46,1321.54L1005.46,1348.24C1005.46,1349.74 1004.71,1350.49 1003.22,1350.49L967.781,1350.49L967.781,1481.75C967.781,1483.24 967.029,1483.99 965.537,1483.99L936.842,1483.99C935.339,1483.99 934.588,1483.24 934.588,1481.75L934.588,1350.49L899.161,1350.49C897.658,1350.49 896.907,1349.74 896.907,1348.24Z" style="fill:rgb(29,38,80);fill-rule:nonzero;"/>
        <path d="M1177.37,1321.41C1177.37,1319.92 1178.12,1319.17 1179.61,1319.17L1208.06,1319.17C1209.56,1319.17 1210.31,1319.92 1210.31,1321.41L1210.31,1481.62C1210.31,1483.11 1209.56,1483.86 1208.06,1483.86L1179.61,1483.86C1178.12,1483.86 1177.37,1483.11 1177.37,1481.62L1177.37,1415.24L1136.95,1415.24L1136.95,1481.62C1136.95,1483.11 1136.2,1483.86 1134.69,1483.86L1106.25,1483.86C1104.91,1483.86 1104.25,1483.11 1104.25,1481.62L1104.25,1321.41C1104.25,1319.92 1104.91,1319.17 1106.25,1319.17L1134.69,1319.17C1136.2,1319.17 1136.95,1319.92 1136.95,1321.41L1136.95,1384.05L1177.37,1384.05L1177.37,1321.41Z" style="fill:rgb(29,38,80);fill-rule:nonzero;"/>
        <path d="M1334.84,1376.81C1334.84,1371.32 1334.16,1366.87 1332.83,1363.46C1331.5,1360.05 1329.76,1357.35 1327.6,1355.35C1325.43,1353.36 1323.02,1352.03 1320.36,1351.36C1317.7,1350.69 1315.04,1350.36 1312.37,1350.36L1309.38,1350.36C1301.4,1350.36 1295.69,1352.73 1292.29,1357.47C1288.88,1362.21 1287.17,1368.66 1287.17,1376.81L1287.17,1426.72C1287.17,1432.21 1287.83,1436.7 1289.16,1440.19C1290.49,1443.68 1292.2,1446.4 1294.28,1448.3C1296.36,1450.21 1298.73,1451.54 1301.4,1452.29C1304.06,1453.05 1306.72,1453.42 1309.38,1453.42L1312.37,1453.42C1320.36,1453.42 1326.05,1450.96 1329.46,1446.06C1332.88,1441.16 1334.66,1434.71 1334.84,1426.72L1334.84,1376.81ZM1311.13,1316.92C1332.42,1316.92 1347.72,1321.91 1357.04,1331.89C1364.36,1339.88 1368.02,1352.11 1368.02,1368.58L1368.02,1434.2C1368.02,1451.18 1364.36,1463.57 1357.04,1471.38C1352.22,1476.38 1346.07,1480.12 1338.57,1482.61C1331.09,1485.11 1321.94,1486.36 1311.13,1486.36C1299.98,1486.36 1290.71,1485.11 1283.3,1482.61C1275.9,1480.12 1269.79,1476.38 1264.97,1471.38C1261.3,1467.39 1258.51,1462.37 1256.6,1456.28C1254.69,1450.21 1253.74,1442.85 1253.74,1434.2L1253.74,1368.58C1253.74,1352.27 1257.47,1339.96 1264.97,1331.65C1269.79,1326.49 1275.94,1322.74 1283.43,1320.42C1290.91,1318.08 1300.15,1316.92 1311.13,1316.92Z" style="fill:rgb(29,38,80);fill-rule:nonzero;"/>
        <path d="M1491.03,1321.41C1491.03,1319.92 1491.78,1319.17 1493.28,1319.17L1521.73,1319.17C1523.23,1319.17 1523.97,1319.92 1523.97,1321.41L1523.97,1434.2C1523.97,1452.34 1519.15,1465.57 1509.5,1473.88C1499.86,1482.2 1485.71,1486.36 1467.08,1486.36C1458.26,1486.36 1450.31,1485.45 1443.25,1483.61C1436.17,1481.78 1430.19,1478.79 1425.29,1474.63C1420.37,1470.47 1416.58,1465.07 1413.92,1458.41C1411.26,1451.76 1409.93,1443.68 1409.93,1434.2L1409.93,1321.41C1409.93,1319.92 1410.68,1319.17 1412.18,1319.17L1440.88,1319.17C1442.37,1319.17 1443.13,1319.92 1443.13,1321.41L1443.13,1426.22C1443.13,1431.71 1443.83,1436.16 1445.25,1439.57C1446.66,1442.98 1448.45,1445.64 1450.61,1447.55C1452.77,1449.47 1455.18,1450.8 1457.85,1451.54C1460.51,1452.29 1463.09,1452.67 1465.59,1452.67L1468.57,1452.67C1476.39,1452.67 1482.09,1450.26 1485.67,1445.43C1489.24,1440.61 1491.03,1434.2 1491.03,1426.22L1491.03,1321.41Z" style="fill:rgb(29,38,80);fill-rule:nonzero;"/>
        <path d="M1625.04,1382.8C1629.69,1385.13 1634.61,1387.75 1639.77,1390.66C1644.91,1393.57 1649.66,1397.03 1653.99,1401.02C1658.31,1405.01 1661.85,1409.5 1664.59,1414.49C1667.33,1419.48 1668.71,1425.22 1668.71,1431.71C1668.71,1433.54 1668.58,1435.78 1668.34,1438.44C1668.08,1441.11 1667.63,1443.98 1666.97,1447.06C1666.3,1450.13 1665.34,1453.29 1664.09,1456.54C1662.85,1459.78 1661.22,1462.91 1659.23,1465.9C1650.07,1479.54 1635.52,1486.36 1615.56,1486.36C1610.23,1486.36 1604.83,1485.69 1599.33,1484.36C1593.85,1483.03 1588.64,1480.99 1583.74,1478.25C1578.83,1475.51 1574.47,1472.05 1570.64,1467.89C1566.81,1463.74 1563.91,1458.74 1561.91,1452.92C1561.57,1452.09 1561.82,1451.42 1562.66,1450.92L1585.62,1431.21C1586.95,1430.21 1588.02,1430.38 1588.85,1431.71C1589.19,1432.37 1589.56,1433.16 1589.98,1434.08C1590.4,1434.99 1590.94,1436.12 1591.61,1437.45C1593.43,1441.28 1596.43,1444.81 1600.58,1448.05C1604.74,1451.3 1609.31,1452.92 1614.31,1452.92C1616.31,1452.92 1618.34,1452.63 1620.42,1452.05C1622.5,1451.46 1624.45,1450.55 1626.29,1449.3C1628.12,1448.05 1629.61,1446.4 1630.78,1444.31C1631.94,1442.23 1632.53,1439.69 1632.53,1436.7C1632.53,1433.88 1631.65,1431.3 1629.91,1428.96C1628.16,1426.64 1626,1424.59 1623.42,1422.85C1620.84,1421.1 1618.09,1419.61 1615.18,1418.36C1612.27,1417.11 1609.57,1415.98 1607.07,1414.99C1601.41,1412.66 1595.8,1410.04 1590.22,1407.13C1584.65,1404.22 1579.45,1400.6 1574.63,1396.28C1564.48,1386.79 1559.41,1375.98 1559.41,1363.83C1559.41,1356.02 1561.03,1349.19 1564.27,1343.37C1567.52,1337.55 1571.81,1332.68 1577.13,1328.77C1582.45,1324.86 1588.44,1321.91 1595.1,1319.92C1601.75,1317.92 1608.48,1316.92 1615.3,1316.92C1636.77,1316.92 1652.74,1328.07 1663.22,1350.36C1663.72,1351.53 1663.46,1352.44 1662.47,1353.1L1640.26,1368.58C1639.43,1369.07 1638.6,1368.82 1637.77,1367.82C1633.44,1361.67 1629.29,1357.14 1625.29,1354.23C1621.3,1351.31 1616.81,1349.86 1611.81,1349.86C1610.48,1349.86 1608.82,1350.02 1606.83,1350.36C1604.83,1350.69 1602.92,1351.27 1601.08,1352.11C1599.25,1352.94 1597.67,1354.07 1596.35,1355.48C1595.01,1356.89 1594.35,1358.76 1594.35,1361.09C1594.35,1363.92 1595.46,1366.41 1597.72,1368.58C1599.96,1370.74 1602.7,1372.69 1605.95,1374.43C1609.19,1376.18 1612.56,1377.72 1616.06,1379.05C1619.55,1380.38 1622.54,1381.63 1625.04,1382.8Z" style="fill:rgb(29,38,80);fill-rule:nonzero;"/>
        <path d="M1706.14,1481.62L1706.14,1321.41C1706.14,1319.92 1706.8,1319.17 1708.14,1319.17L1792.99,1319.17C1794.48,1319.17 1795.23,1319.92 1795.23,1321.41L1795.23,1348.12C1795.23,1349.61 1794.48,1350.36 1792.99,1350.36L1739.08,1350.36L1739.08,1384.29L1781.01,1384.29C1782.34,1384.29 1783.01,1385.05 1783.01,1386.54L1783.01,1413.74C1783.01,1415.24 1782.34,1415.98 1781.01,1415.98L1739.08,1415.98L1739.08,1452.67L1792.99,1452.67C1794.48,1452.67 1795.23,1453.42 1795.23,1454.91L1795.23,1481.62C1795.23,1483.11 1794.48,1483.86 1792.99,1483.86L1708.14,1483.86C1706.8,1483.86 1706.14,1483.11 1706.14,1481.62Z" style="fill:rgb(29,38,80);fill-rule:nonzero;"/>
    </g>
</svg>
