<svg width="803" height="455" viewBox="0 0 803 455" fill="none" xmlns="http://www.w3.org/2000/svg">
<g clip-path="url(#clip0_124_54)">
<path d="M387.722 318.636C387.243 284.902 383.038 249.431 363.911 220.741C346.97 195.331 322.19 180.723 293.856 170.649C281.609 166.295 264.675 166.484 263.479 149.449C262.226 131.609 278.057 127.888 292.432 131.335C323.69 138.83 355.105 165.314 372.941 191.353C378.31 199.19 381.974 208.159 387.71 215.718C387.429 209.136 388.116 202.421 387.765 195.842C385.324 150.109 371.978 110.513 340.527 76.8601C333.543 69.3877 317.933 59.7465 315.05 50.8577C309.625 34.1317 327.42 19.7958 343.011 29.3535C355.135 36.7858 372.891 61.2607 380 73.881C390.616 92.728 398.726 115.891 400.611 137.458C402.759 137.047 402.366 135.193 402.743 133.703C404.552 126.552 405.234 118.951 407.342 111.495C414.214 87.1894 437.724 43.0531 459.722 29.8139C470.126 23.5537 482.064 25.9292 487.416 37.3395C495.227 53.986 479.243 60.7646 469.795 69.8914C428.839 109.459 413.221 159.085 415.637 215.712L427.408 195.863C441.62 169.019 494.426 125.539 525.536 130.055C542.047 132.452 544.873 159.475 527.235 165.86C508.21 172.748 493.031 175.058 474.798 186.383C428.907 214.897 414.648 267.144 415.626 318.636H387.722Z" fill="#75BD43"/>
<path d="M321.877 85.3055C327.803 90.9057 335.226 100.675 339.872 107.532C342.566 111.51 361.547 144.153 359.812 146.029L332.259 128.001C316.877 118.021 260.011 107.962 281.986 79.5459C293.717 64.3764 311.169 75.1883 321.877 85.3055Z" fill="#75BD43"/>
<path d="M443.536 146.03C441.432 143.74 461.752 109.911 464.757 105.597C473.028 93.7237 490.684 71.9882 506.315 71.9757C521.047 71.9637 530.204 88.8272 522.786 101.381C515.847 113.123 484.018 119.168 472.483 127.252L443.536 146.03Z" fill="#75BD43"/>
<path d="M285.484 191.321C307.588 187.49 336.014 214.101 346.446 231.753C348.129 234.6 349.593 236.865 344.805 236.709C329.604 236.215 289.88 233.681 278.316 224.767C266.1 215.35 269.705 194.055 285.484 191.321Z" fill="#75BD43"/>
<path d="M455.341 236.081C454.066 234.856 458.828 228.647 459.825 227.172C470.578 211.27 504.361 179.954 524.566 194.272C537.018 203.096 533.231 221.289 520.153 227.396C502.376 235.695 474.785 235.19 455.341 236.081Z" fill="#75BD43"/>
<path d="M415.26 4.89017C427.32 16.9416 416.53 44.6449 411.351 58.6815C408.669 65.9513 405.703 74.7847 400.614 80.6376C394.306 62.4796 379.427 34.0481 382.426 14.7805C384.62 0.688466 405.539 -4.82423 415.26 4.89017Z" fill="#75BD43"/>
<path d="M39.6444 380.76C39.9395 380.313 40.2346 380.09 40.5346 380.09H53.2552C53.6276 380.09 53.9044 380.202 54.0908 380.429C54.2768 380.648 54.2947 380.943 54.1449 381.318L34.8461 452.966C34.6234 453.408 34.3239 453.631 33.9519 453.631H20.1189C19.6696 453.631 19.4107 453.408 19.3378 452.966L0.0345189 381.318C-0.114814 380.501 0.220515 380.09 1.03782 380.09H13.8675C14.1671 380.09 14.4621 380.313 14.7617 380.76L27.0329 426.889L39.6444 380.76Z" fill="white"/>
<path d="M92.0799 423.438L87.2812 406.609L82.8186 423.438H92.0799ZM79.6951 380.76C79.8449 380.313 80.1038 380.09 80.4762 380.09H94.3137C94.6812 380.09 94.9445 380.313 95.0943 380.76L114.393 452.408C114.542 453.225 114.207 453.631 113.39 453.631H100.669C100.224 453.631 99.9655 453.408 99.8886 452.966L95.5392 437.365H79.2503L75.0099 452.966C74.8601 453.408 74.6017 453.631 74.2293 453.631H61.3996C60.5778 453.631 60.242 453.225 60.3918 452.408L79.6951 380.76Z" fill="white"/>
<path d="M144.633 381.095V439.704H168.731C169.398 439.704 169.734 440.035 169.734 440.696V452.64C169.734 453.301 169.398 453.631 168.731 453.631H130.909C130.31 453.631 130.015 453.296 130.015 452.631V381.095C130.015 380.429 130.31 380.09 130.909 380.09H143.625C144.297 380.09 144.633 380.429 144.633 381.095Z" fill="white"/>
<path d="M199.969 381.095V439.704H224.067C224.734 439.704 225.07 440.035 225.07 440.696V452.64C225.07 453.301 224.734 453.631 224.067 453.631H186.245C185.646 453.631 185.351 453.296 185.351 452.631V381.095C185.351 380.429 185.646 380.09 186.245 380.09H198.961C199.633 380.09 199.969 380.429 199.969 381.095Z" fill="white"/>
<path d="M240.691 452.631V381.095C240.691 380.429 240.986 380.09 241.586 380.09H254.302C254.974 380.09 255.31 380.429 255.31 381.095V452.631C255.31 453.296 254.974 453.631 254.302 453.631H241.586C240.986 453.631 240.691 453.296 240.691 452.631Z" fill="white"/>
<path d="M302.166 423.438L297.367 406.609L292.904 423.438H302.166ZM289.781 380.76C289.931 380.313 290.189 380.09 290.562 380.09H304.399C304.767 380.09 305.03 380.313 305.18 380.76L324.479 452.408C324.629 453.225 324.293 453.631 323.476 453.631H310.755C310.31 453.631 310.051 453.408 309.974 452.966L305.625 437.365H289.336L285.096 452.966C284.946 453.408 284.687 453.631 284.315 453.631H271.485C270.664 453.631 270.328 453.225 270.478 452.408L289.781 380.76Z" fill="white"/>
<path d="M371.562 380.09H384.391C385.058 380.09 385.394 380.429 385.394 381.095V452.631C385.394 453.296 385.058 453.631 384.391 453.631H372.006C371.484 453.631 371.148 453.444 371.003 453.073L354.714 416.419V452.631C354.714 453.296 354.378 453.631 353.706 453.631H340.99C340.391 453.631 340.096 453.296 340.096 452.631V381.095C340.096 380.429 340.391 380.09 340.99 380.09H354.156C354.451 380.09 354.714 380.278 354.936 380.648L370.554 416.637V381.095C370.554 380.429 370.89 380.09 371.562 380.09Z" fill="white"/>
<path d="M401.011 393.017V381.095C401.011 380.429 401.347 380.09 402.019 380.09H448.545C449.211 380.09 449.546 380.429 449.546 381.095V393.017C449.546 393.686 449.211 394.021 448.545 394.021H432.7V452.631C432.7 453.296 432.363 453.631 431.696 453.631H418.867C418.195 453.631 417.859 453.296 417.859 452.631V394.021H402.019C401.347 394.021 401.011 393.686 401.011 393.017Z" fill="white"/>
<path d="M526.408 381.037C526.408 380.372 526.743 380.037 527.409 380.037H540.129C540.8 380.037 541.135 380.372 541.135 381.037V452.573C541.135 453.238 540.8 453.573 540.129 453.573H527.409C526.743 453.573 526.408 453.238 526.408 452.573V422.933H508.336V452.573C508.336 453.238 508 453.573 507.325 453.573H494.61C494.01 453.573 493.715 453.238 493.715 452.573V381.037C493.715 380.372 494.01 380.037 494.61 380.037H507.325C508 380.037 508.336 380.372 508.336 381.037V409.007H526.408V381.037Z" fill="white"/>
<path d="M596.813 405.774C596.813 403.322 596.509 401.335 595.915 399.813C595.32 398.29 594.542 397.084 593.576 396.191C592.606 395.303 591.529 394.709 590.339 394.41C589.15 394.111 587.961 393.963 586.767 393.963H585.43C581.862 393.963 579.309 395.022 577.789 397.138C576.265 399.255 575.5 402.135 575.5 405.774V428.059C575.5 430.511 575.795 432.516 576.39 434.074C576.984 435.632 577.749 436.847 578.679 437.695C579.609 438.548 580.668 439.142 581.862 439.477C583.052 439.816 584.241 439.981 585.43 439.981H586.767C590.339 439.981 592.883 438.883 594.408 436.695C595.937 434.507 596.733 431.627 596.813 428.059V405.774ZM586.213 379.032C595.731 379.032 602.572 381.26 606.739 385.716C610.012 389.284 611.648 394.745 611.648 402.099V431.399C611.648 438.981 610.012 444.513 606.739 448.001C604.584 450.233 601.834 451.903 598.481 453.015C595.137 454.131 591.046 454.69 586.213 454.69C581.227 454.69 577.083 454.131 573.77 453.015C570.461 451.903 567.729 450.233 565.574 448.001C563.933 446.219 562.686 443.978 561.832 441.258C560.978 438.548 560.553 435.262 560.553 431.399V402.099C560.553 394.816 562.221 389.32 565.574 385.609C567.729 383.305 570.479 381.631 573.828 380.595C577.172 379.55 581.303 379.032 586.213 379.032Z" fill="white"/>
<path d="M666.647 381.037C666.647 380.372 666.982 380.037 667.653 380.037H680.373C681.043 380.037 681.374 380.372 681.374 381.037V431.399C681.374 439.499 679.219 445.407 674.905 449.117C670.595 452.832 664.268 454.69 655.938 454.69C651.995 454.69 648.441 454.283 645.284 453.462C642.118 452.645 639.445 451.31 637.254 449.452C635.054 447.595 633.36 445.183 632.17 442.21C630.981 439.24 630.386 435.632 630.386 431.399V381.037C630.386 380.372 630.722 380.037 631.392 380.037H644.224C644.891 380.037 645.23 380.372 645.23 381.037V427.836C645.23 430.288 645.543 432.275 646.178 433.797C646.809 435.32 647.609 436.508 648.575 437.36C649.54 438.218 650.618 438.812 651.812 439.142C653.001 439.477 654.155 439.647 655.272 439.647H656.605C660.101 439.647 662.65 438.57 664.25 436.414C665.846 434.262 666.647 431.399 666.647 427.836V381.037Z" fill="white"/>
<path d="M726.563 408.448C728.642 409.489 730.842 410.659 733.149 411.958C735.447 413.257 737.571 414.802 739.507 416.584C741.438 418.365 743.021 420.37 744.246 422.598C745.471 424.827 746.088 427.39 746.088 430.287C746.088 431.105 746.03 432.105 745.923 433.292C745.807 434.485 745.605 435.766 745.31 437.141C745.011 438.512 744.581 439.923 744.023 441.374C743.468 442.821 742.739 444.219 741.85 445.554C737.754 451.644 731.249 454.69 722.325 454.69C719.942 454.69 717.527 454.39 715.068 453.797C712.618 453.203 710.289 452.292 708.098 451.068C705.902 449.845 703.953 448.3 702.241 446.442C700.528 444.589 699.232 442.357 698.337 439.758C698.185 439.387 698.297 439.088 698.673 438.865L708.938 430.064C709.533 429.618 710.011 429.694 710.382 430.287C710.534 430.582 710.7 430.935 710.888 431.346C711.075 431.752 711.317 432.257 711.616 432.85C712.43 434.561 713.772 436.137 715.627 437.584C717.487 439.035 719.53 439.758 721.766 439.758C722.66 439.758 723.568 439.629 724.498 439.37C725.428 439.106 726.299 438.7 727.122 438.142C727.94 437.584 728.606 436.847 729.13 435.914C729.648 434.985 729.912 433.851 729.912 432.516C729.912 431.256 729.519 430.104 728.741 429.059C727.958 428.024 726.992 427.108 725.839 426.331C724.685 425.55 723.456 424.885 722.155 424.326C720.854 423.768 719.646 423.264 718.529 422.822C715.998 421.781 713.49 420.611 710.995 419.312C708.505 418.013 706.18 416.396 704.025 414.467C699.487 410.23 697.22 405.403 697.22 399.978C697.22 396.491 697.944 393.441 699.393 390.842C700.846 388.243 702.764 386.069 705.142 384.323C707.521 382.577 710.199 381.26 713.177 380.371C716.15 379.478 719.159 379.032 722.208 379.032C731.808 379.032 738.948 384.01 743.634 393.963C743.857 394.486 743.741 394.892 743.298 395.187L733.368 402.099C732.997 402.318 732.626 402.206 732.255 401.759C730.319 399.013 728.463 396.991 726.675 395.691C724.891 394.388 722.884 393.74 720.648 393.74C720.053 393.74 719.311 393.812 718.421 393.963C717.527 394.111 716.673 394.37 715.851 394.745C715.032 395.115 714.326 395.62 713.736 396.249C713.137 396.879 712.842 397.714 712.842 398.754C712.842 400.018 713.338 401.13 714.348 402.099C715.35 403.063 716.575 403.934 718.028 404.711C719.477 405.492 720.983 406.18 722.548 406.774C724.109 407.368 725.445 407.926 726.563 408.448Z" fill="white"/>
<path d="M762.823 452.573V381.037C762.823 380.372 763.118 380.037 763.717 380.037H801.654C802.32 380.037 802.656 380.372 802.656 381.037V392.963C802.656 393.629 802.32 393.963 801.654 393.963H777.551V409.114H796.298C796.893 409.114 797.192 409.453 797.192 410.118V422.264C797.192 422.933 796.893 423.264 796.298 423.264H777.551V439.647H801.654C802.32 439.647 802.656 439.981 802.656 440.647V452.573C802.656 453.238 802.32 453.573 801.654 453.573H763.717C763.118 453.573 762.823 453.238 762.823 452.573Z" fill="white"/>
</g>
<defs>
<clipPath id="clip0_124_54">
<rect width="803" height="455" fill="white"/>
</clipPath>
</defs>
</svg>
