<svg width="348" height="33" viewBox="0 0 348 33" fill="none" xmlns="http://www.w3.org/2000/svg">
<g clip-path="url(#clip0_141_38)">
<path d="M12.442 32.558C12.3935 29.1104 11.9738 25.4859 10.0594 22.5546C8.36348 19.9574 5.88373 18.4651 3.0485 17.4362C1.8225 16.9906 0.128299 17.0101 0.008647 15.2703C-0.116207 13.4475 1.46701 13.0674 2.90631 13.4192C6.0346 14.1848 9.1785 16.8916 10.9646 19.5525C11.5022 20.3534 11.8681 21.2692 12.442 22.0418C12.4143 21.37 12.4819 20.6822 12.4473 20.0104C12.2027 15.3375 10.8675 11.2923 7.7184 7.85352C7.01956 7.08974 5.45715 6.10495 5.16929 5.19619C4.62652 3.48652 6.40743 2.02261 7.96811 2.99855C9.18197 3.7588 10.9594 6.25877 11.6704 7.54765C12.7334 9.47302 13.5449 11.8404 13.7339 14.0433C13.949 14.0009 13.9091 13.8117 13.9472 13.6597C14.1276 12.9295 14.1969 12.1516 14.4068 11.3913C15.0952 8.90726 17.4484 4.39705 19.6489 3.04452C20.6894 2.4045 21.8841 2.64671 22.42 3.8136C23.2021 5.51443 21.6015 6.2075 20.6564 7.13924C16.557 11.1827 14.9946 16.2534 15.2357 22.0401L16.4131 20.0122C17.8351 17.27 23.1206 12.8269 26.235 13.2884C27.8876 13.5342 28.1702 16.294 26.4049 16.9464C24.5009 17.6501 22.9818 17.887 21.1576 19.0433C16.564 21.957 15.1368 27.2964 15.2357 32.5562H12.442V32.558Z" fill="#76BC43"/>
<path d="M5.85252 8.7163C6.44558 9.28914 7.18777 10.2863 7.65424 10.9882C7.92476 11.3948 9.82358 14.7293 9.65017 14.922L6.89297 13.0798C5.3531 12.0596 -0.338169 11.0324 1.86065 8.12932C3.03463 6.57877 4.78086 7.68378 5.85252 8.71807V8.7163Z" fill="#76BC43"/>
<path d="M18.0293 14.922C17.8195 14.6886 19.8518 11.2321 20.1536 10.7901C20.9807 9.57725 22.7478 7.35663 24.3137 7.35486C25.7894 7.35486 26.705 9.07691 25.9628 10.3587C25.2674 11.5592 22.0819 12.1762 20.9287 13.0019L18.0311 14.9202L18.0293 14.922Z" fill="#76BC43"/>
<path d="M2.20916 19.5489C4.42185 19.1581 7.26575 21.8773 8.31141 23.6807C8.47962 23.9724 8.62701 24.2023 8.14667 24.1864C6.62588 24.1351 2.64962 23.877 1.49125 22.9664C0.268714 22.0046 0.629404 19.8282 2.20916 19.5489Z" fill="#76BC43"/>
<path d="M19.2102 24.1228C19.0819 23.9973 19.5588 23.3625 19.6594 23.2123C20.7362 21.5874 24.1177 18.3873 26.1396 19.8513C27.3865 20.7529 27.0067 22.6111 25.6975 23.2352C23.9183 24.0839 21.1576 24.0308 19.2102 24.1228Z" fill="#76BC43"/>
<path d="M15.1993 0.50031C16.4063 1.73262 15.3259 4.56321 14.8074 5.99707C14.5387 6.73963 14.2421 7.64309 13.7323 8.24068C13.1011 6.38603 11.6115 3.47941 11.9115 1.51161C12.1317 0.0724499 14.2248 -0.491547 15.1976 0.50031H15.1993Z" fill="#76BC43"/>
<path d="M52.0676 3.72718C52.1821 3.55038 52.2965 3.46375 52.4127 3.46375H57.3462C57.4901 3.46375 57.5976 3.50618 57.6705 3.59635C57.7433 3.68475 57.7502 3.80144 57.6913 3.94818L50.2069 32.3178C50.1202 32.4946 50.0041 32.5812 49.8601 32.5812H44.4949C44.3197 32.5812 44.2209 32.4928 44.1914 32.3178L36.7053 3.94818C36.6464 3.62463 36.7782 3.46375 37.0938 3.46375H42.0689C42.1851 3.46375 42.2995 3.55215 42.4157 3.72718L47.1758 21.9943L52.0676 3.72718Z" fill="#1E2650"/>
<path d="M67.6016 3.72694C67.6606 3.55013 67.7594 3.4635 67.9051 3.4635H73.2721C73.4143 3.4635 73.5166 3.5519 73.5756 3.72694L81.0599 32.0965C81.1188 32.4201 80.987 32.5809 80.6714 32.5809H75.738C75.5646 32.5809 75.4657 32.4925 75.4345 32.3175L73.7472 26.1401H67.43L65.786 32.3175C65.7271 32.4943 65.6282 32.5809 65.4826 32.5809H60.5075C60.1884 32.5809 60.0583 32.4201 60.1173 32.0965L67.6034 3.72694H67.6016ZM72.4051 20.6256L70.5444 13.9637L68.8138 20.6256H72.4051Z" fill="#1E2650"/>
<path d="M92.7874 3.85954V27.0665H102.134C102.392 27.0665 102.523 27.1973 102.523 27.459V32.1884C102.523 32.4501 102.392 32.5809 102.134 32.5809H87.4655C87.2331 32.5809 87.1187 32.4483 87.1187 32.1849V3.85954C87.1187 3.5961 87.2331 3.4635 87.4655 3.4635H92.3972C92.6573 3.4635 92.7874 3.5961 92.7874 3.85954Z" fill="#1E2650"/>
<path d="M114.249 3.85954V27.0665H123.595C123.854 27.0665 123.984 27.1973 123.984 27.459V32.1884C123.984 32.4501 123.854 32.5809 123.595 32.5809H108.927C108.694 32.5809 108.58 32.4483 108.58 32.1849V3.85954C108.58 3.5961 108.694 3.4635 108.927 3.4635H113.858C114.119 3.4635 114.249 3.5961 114.249 3.85954Z" fill="#1E2650"/>
<path d="M130.042 32.1849V3.85954C130.042 3.5961 130.157 3.4635 130.389 3.4635H135.321C135.581 3.4635 135.711 3.5961 135.711 3.85954V32.1849C135.711 32.4483 135.581 32.5809 135.321 32.5809H130.389C130.157 32.5809 130.042 32.4483 130.042 32.1849Z" fill="#1E2650"/>
<path d="M149.083 3.72694C149.142 3.55013 149.241 3.4635 149.386 3.4635H154.753C154.895 3.4635 154.998 3.5519 155.057 3.72694L162.541 32.0965C162.6 32.4201 162.468 32.5809 162.153 32.5809H157.219C157.046 32.5809 156.947 32.4925 156.916 32.3175L155.228 26.1401H148.911L147.267 32.3175C147.208 32.4943 147.109 32.5809 146.964 32.5809H141.989C141.67 32.5809 141.54 32.4201 141.599 32.0965L149.085 3.72694H149.083ZM153.885 20.6256L152.024 13.9637L150.293 20.6256H153.885Z" fill="#1E2650"/>
<path d="M180.801 3.46179H185.776C186.034 3.46179 186.164 3.59439 186.164 3.85783V32.1832C186.164 32.4466 186.034 32.5792 185.776 32.5792H180.973C180.77 32.5792 180.64 32.505 180.584 32.3582L174.267 17.8446V32.1832C174.267 32.4466 174.137 32.5792 173.877 32.5792H168.945C168.713 32.5792 168.598 32.4466 168.598 32.1832V3.8596C168.598 3.59616 168.713 3.46356 168.945 3.46356H174.052C174.166 3.46356 174.269 3.53782 174.355 3.68456L180.412 17.9348V3.8596C180.412 3.59616 180.543 3.46356 180.803 3.46356L180.801 3.46179Z" fill="#1E2650"/>
<path d="M192.222 8.58014V3.85954C192.222 3.5961 192.352 3.4635 192.612 3.4635H210.657C210.915 3.4635 211.045 3.5961 211.045 3.85954V8.58014C211.045 8.84357 210.915 8.97617 210.657 8.97617H204.511V32.1831C204.511 32.4466 204.381 32.5792 204.123 32.5792H199.148C198.888 32.5792 198.757 32.4466 198.757 32.1831V8.97794H192.614C192.353 8.97794 192.223 8.84534 192.223 8.5819L192.222 8.58014Z" fill="#1E2650"/>
<path d="M240.858 3.83659C240.858 3.57315 240.988 3.44055 241.246 3.44055H246.18C246.438 3.44055 246.568 3.57315 246.568 3.83659V32.162C246.568 32.4254 246.438 32.558 246.18 32.558H241.246C240.988 32.558 240.858 32.4254 240.858 32.162V20.4259H233.848V32.162C233.848 32.4254 233.718 32.558 233.458 32.558H228.527C228.294 32.558 228.18 32.4254 228.18 32.162V3.83659C228.18 3.57315 228.294 3.44055 228.527 3.44055H233.458C233.718 3.44055 233.848 3.57315 233.848 3.83659V14.9114H240.858V3.83659Z" fill="#1E2650"/>
<path d="M264.051 3.04272C267.743 3.04272 270.396 3.92496 272.014 5.68944C273.283 7.10209 273.918 9.26437 273.918 12.1763V23.778C273.918 26.7801 273.283 28.9689 272.014 30.3515C271.178 31.2355 270.11 31.895 268.811 32.337C267.514 32.779 265.927 33 264.051 33C262.175 33 260.51 32.779 259.227 32.337C257.944 31.895 256.884 31.2355 256.047 30.3515C255.41 29.646 254.926 28.7567 254.595 27.6818C254.264 26.6086 254.099 25.3073 254.099 23.778V12.1763C254.099 9.29266 254.748 7.118 256.047 5.64701C256.882 4.73472 257.951 4.07348 259.248 3.66153C260.545 3.24781 262.147 3.04449 264.051 3.04449V3.04272ZM268.163 13.6314C268.163 12.6607 268.046 11.874 267.816 11.2711C267.585 10.6682 267.282 10.1908 266.907 9.83721C266.533 9.48537 266.113 9.25023 265.652 9.13177C265.19 9.01508 264.729 8.95497 264.268 8.95497H263.748C262.364 8.95497 261.374 9.37399 260.784 10.212C260.193 11.0501 259.896 12.1904 259.896 13.6314V22.4555C259.896 23.4262 260.011 24.22 260.241 24.837C260.472 25.4541 260.768 25.9332 261.129 26.2709C261.49 26.6086 261.901 26.8437 262.364 26.9763C262.825 27.1089 263.286 27.1761 263.748 27.1761H264.268C265.652 27.1761 266.64 26.7412 267.231 25.8749C267.823 25.0085 268.133 23.8682 268.163 22.4555V13.6314Z" fill="#1E2650"/>
<path d="M295.249 3.83659C295.249 3.57315 295.379 3.44055 295.637 3.44055H300.571C300.831 3.44055 300.959 3.57315 300.959 3.83659V23.778C300.959 26.9834 300.123 29.3243 298.45 30.7935C296.777 32.2645 294.325 33 291.094 33C289.565 33 288.188 32.8391 286.962 32.5138C285.734 32.1902 284.697 31.6616 283.847 30.9261C282.996 30.1906 282.339 29.2359 281.877 28.0566C281.416 26.8809 281.186 25.4541 281.186 23.7763V3.83659C281.186 3.57315 281.316 3.44055 281.574 3.44055H286.551C286.809 3.44055 286.939 3.57315 286.939 3.83659V22.3672C286.939 23.3378 287.061 24.1246 287.307 24.7275C287.551 25.3303 287.862 25.8006 288.236 26.1383C288.611 26.4778 289.029 26.7129 289.492 26.8438C289.953 26.9764 290.4 27.0436 290.834 27.0436H291.352C292.709 27.0436 293.695 26.6175 294.318 25.7635C294.937 24.9113 295.247 23.778 295.247 22.3672V3.83659H295.249Z" fill="#1E2650"/>
<path d="M318.488 14.6905C319.294 15.1024 320.145 15.5639 321.04 16.0801C321.933 16.5946 322.755 17.2064 323.508 17.9118C324.257 18.6172 324.871 19.4111 325.346 20.2933C325.821 21.1755 326.06 22.1904 326.06 23.3378C326.06 23.6614 326.038 24.0574 325.994 24.5277C325.951 24.998 325.871 25.5054 325.757 26.05C325.641 26.5945 325.476 27.1514 325.259 27.726C325.042 28.2989 324.761 28.8523 324.416 29.3809C322.828 31.7925 320.305 32.9983 316.844 32.9983C315.919 32.9983 314.983 32.8798 314.029 32.6447C313.079 32.4095 312.175 32.0488 311.324 31.5644C310.474 31.08 309.716 30.47 309.052 29.7327C308.388 28.999 307.885 28.115 307.538 27.086C307.48 26.9393 307.525 26.8208 307.669 26.7324L311.65 23.2459C311.881 23.0691 312.068 23.1009 312.212 23.3361C312.271 23.4528 312.335 23.5924 312.408 23.7551C312.481 23.916 312.573 24.1158 312.689 24.3509C313.006 25.0281 313.525 25.6522 314.246 26.225C314.967 26.7996 315.76 27.086 316.627 27.086C316.974 27.086 317.326 27.0347 317.686 26.9322C318.047 26.8279 318.385 26.667 318.704 26.446C319.022 26.225 319.28 25.9333 319.483 25.5638C319.684 25.196 319.786 24.7469 319.786 24.2165C319.786 23.718 319.635 23.2618 319.332 22.8481C319.029 22.4361 318.654 22.0755 318.207 21.7678C317.759 21.4584 317.282 21.195 316.779 20.974C316.275 20.753 315.805 20.5532 315.373 20.3782C314.392 19.9662 313.419 19.5048 312.451 18.9885C311.485 18.474 310.584 17.834 309.746 17.0702C307.988 15.3941 307.107 13.4811 307.107 11.3348C307.107 9.95219 307.388 8.7464 307.949 7.71742C308.513 6.68666 309.255 5.82741 310.178 5.13611C311.1 4.44482 312.139 3.92326 313.294 3.57142C314.447 3.21782 315.614 3.04102 316.799 3.04102C320.522 3.04102 323.291 5.01235 325.108 8.95326C325.195 9.16012 325.15 9.32101 324.978 9.43769L321.127 12.1728C320.983 12.2612 320.837 12.2152 320.693 12.0402C319.942 10.9529 319.223 10.152 318.529 9.63571C317.837 9.12122 317.059 8.86309 316.193 8.86309C315.963 8.86309 315.673 8.89138 315.328 8.95149C314.981 9.0116 314.65 9.11238 314.331 9.26089C314.014 9.40764 313.74 9.60742 313.511 9.85671C313.278 10.106 313.164 10.4366 313.164 10.8503C313.164 11.3489 313.358 11.7909 313.748 12.1728C314.137 12.5547 314.614 12.8995 315.175 13.2089C315.737 13.5183 316.322 13.7905 316.927 14.0257C317.532 14.2608 318.052 14.4818 318.486 14.6887L318.488 14.6905Z" fill="#1E2650"/>
<path d="M332.551 32.162V3.83659C332.551 3.57315 332.665 3.44055 332.898 3.44055H347.611C347.87 3.44055 348 3.57315 348 3.83659V8.55719C348 8.82062 347.87 8.95322 347.611 8.95322H338.263V14.9521H345.534C345.765 14.9521 345.881 15.0847 345.881 15.3481V20.1571C345.881 20.4223 345.765 20.5532 345.534 20.5532H338.263V27.04H347.611C347.87 27.04 348 27.1726 348 27.4361V32.1567C348 32.4201 347.87 32.5527 347.611 32.5527H332.898C332.665 32.5527 332.551 32.4201 332.551 32.1567V32.162Z" fill="#1E2650"/>
</g>
<defs>
<clipPath id="clip0_141_38">
<rect width="348" height="33" fill="white"/>
</clipPath>
</defs>
</svg>
